<?xml version="1.0" encoding="utf-8"?>
<!-- Generator: Adobe Illustrator 27.6.1, SVG Export Plug-In . SVG Version: 6.00 Build 0)  -->
<svg version="1.1" id="Layer_1" xmlns="http://www.w3.org/2000/svg" xmlns:xlink="http://www.w3.org/1999/xlink" x="0px" y="0px"
	 viewBox="0 0 71 70" style="enable-background:new 0 0 71 70;" xml:space="preserve">
<style type="text/css">
	.st0{fill:none;stroke:#49B3F7;stroke-width:2;stroke-miterlimit:10;}
	.st1{fill:none;stroke:#49B3F7;stroke-width:2;stroke-linecap:square;stroke-miterlimit:10;}
	.st2{fill:#FFFFFF;stroke:#49B3F7;stroke-width:2;stroke-miterlimit:10;}
</style>
<g id="_x31_8">
	<line class="st0" x1="35.5" y1="35.7" x2="35.5" y2="43.7"/>
	<polyline class="st0" points="53.7,15.2 53.7,33.1 35.5,43.7 17.3,33.1 17.3,12 35.5,1.5 53.7,12 44.6,17.3 35.5,22.6 35.5,33.1 	
		"/>
	<polyline class="st1" points="43.6,16.7 35.5,12 26.4,17.3 26.4,24.5 	"/>
	<polyline class="st1" points="26.8,28.1 35.5,33.1 44.6,27.9 44.6,21 	"/>
	<line class="st0" x1="50.7" y1="31.4" x2="44.8" y2="27.9"/>
	<line class="st0" x1="26.8" y1="27.7" x2="17.3" y2="33.1"/>
	<line class="st0" x1="35.5" y1="12" x2="35.5" y2="1.5"/>
	<polyline class="st0" points="20.6,13.9 26.4,17.3 35.5,22.6 	"/>
</g>
<g>
	<path class="st2" d="M40,59.7c-1,0-2,0-3.1,0c-2.8,0-5.6,0-8.5,0c-0.3,0-0.7-0.1-1,0c-0.9,0.1-1.6,0.5-2.2,1.2
		c-1.1,1.3-2.3,2.6-3.5,3.8c-1.1,1-2.1,2-3.4,2.9c-0.6,0.4-1.3,0.8-2,1c-1.5,0.3-3.3-0.2-4.3-1.7C11.5,66,11.2,65,11,64
		c-0.1-0.6-0.2-1.1-0.3-1.7c-0.1-0.7-0.2-1.5-0.2-2.2c0-0.6-0.1-1.2-0.1-1.9c0-1.4,0.1-2.7,0.2-4.1c0.1-1.4,0.4-2.8,0.7-4.2
		c0.7-3.2,1.9-6.2,3.6-9c0.6-1.1,1.4-2,2.2-2.9c1.3-1.3,2.8-2.3,4.6-2.8c1-0.3,1.9-0.4,2.9-0.3c1.1,0.1,2.3,0.3,3.4,0.7
		c1.4,0.5,2.6,1.1,3.8,1.9c0.8,0.5,1.7,0.8,2.7,0.8c0.8,0,1.5,0,2.3,0c1,0,2-0.3,2.8-0.9c1.5-1,3.1-1.8,4.8-2.2c1-0.2,2-0.4,3-0.4
		c1.4,0.1,2.8,0.4,4.1,1.1c1.1,0.6,2,1.3,2.8,2.2c0.8,0.8,1.5,1.8,2.1,2.8c1.2,1.9,2.1,4,2.8,6.1c0.5,1.5,0.9,3,1.2,4.6
		c0.1,0.6,0.2,1.2,0.3,1.8c0.1,0.8,0.2,1.5,0.2,2.3c0,0.7,0.1,1.5,0.1,2.2c0,1.3-0.1,2.5-0.2,3.8c-0.1,1.1-0.3,2.2-0.6,3.3
		c-0.3,1.1-0.9,2.1-1.8,2.8c-0.6,0.4-1.2,0.6-1.9,0.8c-1.1,0.2-2-0.2-2.9-0.7c-1.1-0.7-2-1.5-2.9-2.3c-1-0.9-1.9-1.8-2.8-2.8
		c-0.5-0.6-1.1-1.2-1.6-1.8c-0.7-0.8-1.6-1.2-2.6-1.2C42.4,59.7,41.2,59.7,40,59.7L40,59.7z M27.8,49.8L27.8,49.8c0.5,0,1,0,1.5,0
		c0.4,0,0.3,0,0.5-0.3c0.4-0.9,0.4-1.8-0.1-2.6c-0.1-0.1-0.2-0.2-0.3-0.2c-0.7,0-1.3,0-2,0c-0.3,0-0.6,0-1,0c-0.1,0-0.2-0.1-0.2-0.2
		c0-0.1,0-0.3,0-0.4c0-0.9,0-1.8,0-2.6c0-0.1,0-0.2-0.2-0.2c-0.9-0.3-1.8-0.4-2.7-0.1c-0.2,0-0.2,0.1-0.2,0.3c0,1,0,2,0,3
		c0,0.3,0,0.3-0.3,0.3c-1,0-2,0-3.1,0c-0.1,0-0.2,0-0.3,0.2c-0.4,0.9-0.4,1.8,0,2.7c0.1,0.1,0.2,0.2,0.3,0.2c1,0,2,0,3,0
		c0.2,0,0.2,0,0.2,0.2c0,0.5,0,1.1,0,1.6c0,0.4,0,0.9,0,1.3c0,0.2,0,0.3,0.2,0.4c0.1,0,0.2,0.1,0.3,0.1c0.8,0.3,1.6,0.3,2.4-0.1
		c0.2-0.1,0.3-0.2,0.3-0.4c0-1,0-2,0-3c0-0.1,0-0.2,0.2-0.2C26.8,49.8,27.3,49.8,27.8,49.8z M43,43.6c0,1.4,1.2,2.5,2.6,2.5
		C47,46,48,44.8,48,43.5c-0.1-1.6-1.4-2.5-2.7-2.5C44,41.1,42.9,42.2,43,43.6z M45.5,53.5c1.3,0,2.5-1,2.5-2.5s-1.1-2.5-2.5-2.5
		S43,49.6,43,51C42.9,52.6,44.3,53.6,45.5,53.5z M52.3,45.1c-1.3-0.1-2.6,1.2-2.5,2.7c0.1,1.3,1.2,2.4,2.6,2.3
		c1.4,0,2.5-1.2,2.5-2.5C54.8,46.2,53.6,45,52.3,45.1z"/>
</g>
</svg>
