<?xml version="1.0" encoding="utf-8"?>
<!-- Generator: Adobe Illustrator 27.6.1, SVG Export Plug-In . SVG Version: 6.00 Build 0)  -->
<svg version="1.1" id="Layer_1" xmlns="http://www.w3.org/2000/svg" xmlns:xlink="http://www.w3.org/1999/xlink" x="0px" y="0px"
	 viewBox="0 0 71 70" style="enable-background:new 0 0 71 70;" xml:space="preserve">
<style type="text/css">
	.st0{fill:#49B3F7;}
	.st1{enable-background:new    ;}
</style>
<path class="st0" d="M61.4,47l-1-1.9c5.1-2.8,8.3-8.2,8.3-14c0-8.8-7.1-15.9-15.9-15.9S36.9,22.3,36.9,31c0,3.3,1,6.4,2.9,9.1
	L38,41.4c-2.1-3-3.2-6.6-3.2-10.3c0-10,8.1-18.1,18.1-18.1S71,21.1,71,31.1C70.9,37.7,67.3,43.8,61.4,47z"/>
<path class="st0" d="M62,69.1H0.2V39.7H62V69.1z M2.4,66.9h57.4v-25H2.4V66.9z"/>
<g>
	<rect x="9.8" y="34.8" class="st0" width="2.4" height="2.2"/>
	<rect x="4.9" y="34.8" class="st0" width="2.4" height="2.2"/>
	<rect x="0.1" y="34.8" class="st0" width="2.4" height="2.2"/>
</g>
<g class="st1">
	<path class="st0" d="M46.8,30.7v-8.4h3v8.4c0,1.8-0.4,3.1-1.2,3.9c-0.8,0.8-2,1.2-3.5,1.2c-0.8,0-1.6-0.1-2.2-0.3l0.3-2.4
		c0.5,0.2,1,0.2,1.5,0.2c0.7,0,1.2-0.2,1.5-0.6S46.8,31.7,46.8,30.7z"/>
	<path class="st0" d="M51.9,35l0.6-2.5c1.1,0.6,2.2,0.8,3.3,0.8c0.7,0,1.2-0.1,1.6-0.4s0.5-0.6,0.5-1.1c0-0.4-0.2-0.8-0.5-1
		c-0.3-0.3-0.9-0.6-1.7-0.8c-2.5-0.9-3.7-2.2-3.7-4c0-1.2,0.5-2.1,1.4-2.9c0.9-0.8,2.1-1.1,3.7-1.1c1.3,0,2.5,0.2,3.4,0.7l-0.7,2.4
		C59,24.8,58,24.6,57,24.6c-0.6,0-1.1,0.1-1.4,0.4c-0.3,0.3-0.5,0.6-0.5,0.9c0,0.4,0.2,0.7,0.5,1s1,0.6,1.9,0.9
		c1.2,0.4,2.1,1,2.6,1.6c0.6,0.6,0.8,1.4,0.8,2.4c0,1.2-0.5,2.2-1.4,3s-2.2,1.2-4,1.2c-0.7,0-1.4-0.1-2.1-0.2S52.3,35.2,51.9,35z"/>
</g>
<g class="st1">
	<path class="st0" d="M8.9,59.3v-10c0.8-0.1,1.8-0.2,3.1-0.2c1.4,0,2.4,0.3,3.1,0.8c0.7,0.5,1.1,1.3,1.1,2.3c0,1-0.3,1.8-0.9,2.4
		c-0.8,0.7-1.9,1.1-3.3,1.1c-0.3,0-0.6,0-0.8-0.1v3.6H8.9z M11.1,51v3c0.2,0,0.4,0.1,0.8,0.1c0.6,0,1.1-0.1,1.4-0.4s0.5-0.7,0.5-1.2
		c0-0.5-0.2-0.8-0.5-1.1c-0.3-0.3-0.8-0.4-1.3-0.4C11.6,50.9,11.3,50.9,11.1,51z"/>
	<path class="st0" d="M16.8,52h2.5l1.1,3.6c0.2,0.5,0.3,1,0.4,1.4h0c0-0.2,0.1-0.4,0.2-0.8c0.1-0.3,0.1-0.6,0.1-0.6l0.9-3.6h2.4
		l-1.7,4.8c-0.5,1.4-0.9,2.5-1.3,3.2c-0.4,0.7-0.8,1.3-1.2,1.6c-0.7,0.6-1.4,0.9-2.2,1l-0.5-1.9c0.3-0.1,0.6-0.2,1-0.4
		c0.4-0.2,0.7-0.5,0.9-0.9c0.1-0.1,0.1-0.2,0.1-0.3c0-0.1,0-0.2-0.1-0.4L16.8,52z"/>
	<path class="st0" d="M25.8,50.6L28,50v2h1.6v1.7H28v2.7c0,0.5,0.1,0.8,0.2,1c0.1,0.2,0.4,0.3,0.7,0.3c0.3,0,0.5,0,0.7-0.1l0,1.7
		c-0.4,0.1-0.8,0.2-1.5,0.2c-0.7,0-1.3-0.2-1.7-0.6c-0.4-0.4-0.6-1.2-0.6-2.2v-3h-1V52h1V50.6z"/>
	<path class="st0" d="M31,59.3V48.7h2.3v4.2h0c0.2-0.3,0.5-0.6,0.9-0.8c0.4-0.2,0.8-0.3,1.2-0.3c0.8,0,1.4,0.3,1.9,0.8
		c0.5,0.5,0.7,1.3,0.7,2.4v4.3h-2.3v-4c0-1.1-0.4-1.6-1.2-1.6c-0.6,0-0.9,0.3-1.1,0.8c-0.1,0.1-0.1,0.3-0.1,0.5v4.3H31z"/>
	<path class="st0" d="M43.1,59.5L43.1,59.5c-1.1,0-2-0.3-2.7-1c-0.7-0.7-1.1-1.6-1.1-2.8c0-1.2,0.4-2.1,1.1-2.8s1.7-1.1,2.9-1.1
		c1.1,0,2,0.4,2.7,1c0.7,0.7,1,1.6,1,2.7c0,1.3-0.4,2.2-1.1,2.9C45.1,59.2,44.2,59.5,43.1,59.5z M43.2,57.9L43.2,57.9
		c0.5,0,0.8-0.2,1.1-0.6c0.3-0.4,0.4-0.9,0.4-1.6c0-0.6-0.1-1.1-0.4-1.5c-0.2-0.4-0.6-0.6-1.1-0.6c-0.5,0-0.9,0.2-1.1,0.6
		c-0.2,0.4-0.4,1-0.4,1.6c0,0.6,0.1,1.2,0.4,1.6S42.7,57.9,43.2,57.9z"/>
	<path class="st0" d="M48.4,59.3v-5c0-0.7,0-1.5-0.1-2.3h2l0.1,1h0c0.2-0.3,0.5-0.6,0.9-0.8c0.4-0.2,0.9-0.4,1.4-0.4
		c0.8,0,1.4,0.3,1.9,0.8c0.5,0.5,0.7,1.3,0.7,2.4v4.3h-2.3v-4.1c0-1.1-0.4-1.6-1.2-1.6c-0.6,0-1,0.3-1.2,0.9
		c-0.1,0.1-0.1,0.3-0.1,0.6v4.2H48.4z"/>
</g>
<g class="st1">
	<path class="st0" d="M1.2,17.1v-10C2,7,3,6.9,4.3,6.9c1.4,0,2.4,0.3,3.1,0.8c0.7,0.5,1.1,1.3,1.1,2.3c0,1-0.3,1.8-0.9,2.4
		c-0.8,0.7-1.9,1.1-3.3,1.1c-0.3,0-0.6,0-0.8-0.1v3.6H1.2z M3.5,8.7v3c0.2,0,0.4,0.1,0.8,0.1c0.6,0,1.1-0.1,1.4-0.4s0.5-0.7,0.5-1.2
		C6.2,9.7,6,9.3,5.7,9C5.4,8.8,5,8.7,4.4,8.7C3.9,8.7,3.6,8.7,3.5,8.7z"/>
	<path class="st0" d="M9.9,7h2.3v3.9H16V7h2.3v10.1H16v-4.2h-3.8v4.2H9.9V7z"/>
	<path class="st0" d="M20.2,17.1v-10c0.8-0.1,1.8-0.2,3.1-0.2c1.4,0,2.4,0.3,3.1,0.8c0.7,0.5,1.1,1.3,1.1,2.3c0,1-0.3,1.8-0.9,2.4
		c-0.8,0.7-1.9,1.1-3.3,1.1c-0.3,0-0.6,0-0.8-0.1v3.6H20.2z M22.5,8.7v3c0.2,0,0.4,0.1,0.8,0.1c0.6,0,1.1-0.1,1.4-0.4
		s0.5-0.7,0.5-1.2c0-0.5-0.2-0.8-0.5-1.1c-0.3-0.3-0.8-0.4-1.3-0.4C23,8.7,22.7,8.7,22.5,8.7z"/>
</g>
<g class="st1">
	<path class="st0" d="M0.8,30.6l0.5-1.9c0.8,0.4,1.6,0.6,2.5,0.6c0.5,0,0.9-0.1,1.2-0.3s0.4-0.5,0.4-0.8c0-0.3-0.1-0.6-0.4-0.8
		c-0.3-0.2-0.7-0.4-1.3-0.6c-1.9-0.7-2.8-1.7-2.8-3c0-0.9,0.3-1.6,1-2.2c0.7-0.6,1.6-0.9,2.8-0.9c1,0,1.9,0.2,2.6,0.5l-0.5,1.8
		c-0.6-0.3-1.3-0.5-2.1-0.5c-0.5,0-0.8,0.1-1.1,0.3c-0.3,0.2-0.4,0.4-0.4,0.7c0,0.3,0.1,0.5,0.4,0.7c0.3,0.2,0.8,0.4,1.5,0.7
		c0.9,0.3,1.6,0.7,2,1.2s0.6,1.1,0.6,1.8c0,0.9-0.3,1.6-1,2.2C6,31,5,31.2,3.7,31.2c-0.5,0-1.1-0.1-1.6-0.2S1.1,30.8,0.8,30.6z"/>
	<path class="st0" d="M18.6,31.1l-0.6,1.8c-1.3-0.4-2.6-0.9-4-1.4c-0.2-0.1-0.4-0.1-0.7-0.2c-1.2-0.1-2.3-0.6-3.1-1.5
		c-0.9-0.9-1.3-2.1-1.3-3.7c0-1.5,0.5-2.8,1.4-3.8c0.9-1,2.1-1.5,3.6-1.5c1.5,0,2.6,0.5,3.5,1.5c0.8,1,1.3,2.2,1.3,3.6
		c0,1.1-0.2,2-0.7,2.8c-0.4,0.8-1,1.4-1.7,1.7v0.1C16.9,30.7,17.7,30.9,18.6,31.1z M13.7,29.4L13.7,29.4c0.8,0,1.4-0.3,1.8-1
		c0.4-0.6,0.6-1.5,0.6-2.5c0-1-0.2-1.8-0.7-2.4c-0.4-0.6-1-1-1.8-1c-0.8,0-1.4,0.3-1.8,1c-0.4,0.7-0.7,1.5-0.7,2.4
		c0,1,0.2,1.8,0.7,2.4C12.3,29.1,12.9,29.4,13.7,29.4z"/>
	<path class="st0" d="M20.1,31.1V21h2.3v8.2h4v1.9H20.1z"/>
</g>
</svg>
