<svg width="1781" height="572" viewBox="0 0 1781 572" fill="none" xmlns="http://www.w3.org/2000/svg">
<path d="M80.7971 348.226L8.47863 350.633C19.6009 485.957 124.372 528.46 174.971 536.429L167.227 459.118C167.227 459.118 103.762 447.784 80.7971 348.226Z" fill="white"/>
<path d="M1666.8 36.2259L1594.48 38.6327C1605.6 173.957 1710.37 216.46 1760.97 224.429L1753.23 147.118C1753.23 147.118 1689.76 135.784 1666.8 36.2259Z" fill="white"/>
<path d="M209.844 319.417L235.961 296.667C190.933 249.797 139.197 265.686 118.006 278.021L144.247 304.377C144.247 304.377 171.23 289.403 209.844 319.417Z" fill="white"/>
<path d="M1586.6 271.873L1612.72 249.122C1567.69 202.253 1515.96 218.142 1494.77 230.476L1521.01 256.833C1521.01 256.833 1547.99 241.858 1586.6 271.873Z" fill="white"/>
<path d="M1675.91 522.268L1670.06 556.407C1734.57 564.253 1764.61 519.234 1773.23 496.28L1736.24 492.449C1736.24 492.449 1724.8 521.11 1675.91 522.268Z" fill="white"/>
<path d="M1614.12 485.23L1630.36 454.634C1571.53 427.004 1528.92 460.371 1513.55 479.478L1547.49 494.686C1547.49 494.686 1567.32 471.039 1614.12 485.23Z" fill="white"/>
<path d="M1682.1 438.628L1696.59 447.855C1712.56 419.854 1697.74 397.478 1688.9 389.131L1680.04 405.314C1680.04 405.314 1690.96 416.045 1682.1 438.628Z" fill="white"/>
<path d="M157.217 94.6386L173.456 89.0377C161.474 59.1134 134.733 56.7937 122.696 58.5224L129.857 75.5212C129.857 75.5212 145.048 73.6564 157.217 94.6386Z" fill="white"/>
<path d="M35.9927 205.475L57.1663 232.886C106.605 190.695 93.7898 138.113 82.7241 116.233L54.8682 140.877C54.8682 140.877 68.2283 168.695 35.9927 205.475Z" fill="white"/>
</svg>
