<?xml version="1.0" encoding="utf-8"?>
<!-- Generator: Adobe Illustrator 27.6.1, SVG Export Plug-In . SVG Version: 6.00 Build 0)  -->
<svg version="1.1" id="Layer_1" xmlns="http://www.w3.org/2000/svg" xmlns:xlink="http://www.w3.org/1999/xlink" x="0px" y="0px"
	 viewBox="0 0 71 70" style="enable-background:new 0 0 71 70;" xml:space="preserve">
<style type="text/css">
	.st0{fill:none;stroke:#49B3F7;stroke-width:2;stroke-miterlimit:10;}
	.st1{fill:#FFFFFF;stroke:#49B3F7;stroke-width:2;stroke-linecap:square;stroke-miterlimit:10;}
	.st2{fill:none;stroke:#49B3F7;stroke-width:2;stroke-linecap:square;stroke-miterlimit:10;}
	.st3{fill:#FFFFFF;stroke:#49B3F7;stroke-width:2;stroke-miterlimit:10;}
</style>
<g id="_x31_8">
	<line class="st0" x1="35.5" y1="55.9" x2="35.5" y2="68.7"/>
	<polyline class="st0" points="64.5,23.3 64.5,51.8 35.5,68.7 6.5,51.8 6.5,18.2 35.5,1.3 64.5,18.2 50,26.6 35.5,35 35.5,51.8 	"/>
	<polyline class="st1" points="48.5,25.7 35.5,18.2 21,26.6 21,38 	"/>
	<polyline class="st2" points="21.6,43.7 35.5,51.8 50,43.4 50,32.5 	"/>
	<line class="st3" x1="59.7" y1="49" x2="50.3" y2="43.4"/>
	<line class="st3" x1="21.7" y1="43.2" x2="6.5" y2="51.8"/>
	<line class="st3" x1="35.5" y1="18.2" x2="35.5" y2="1.3"/>
	<polyline class="st0" points="11.7,21.2 21,26.6 35.5,35 	"/>
</g>
</svg>
