<?xml version="1.0" encoding="utf-8"?>
<!-- Generator: Adobe Illustrator 27.6.1, SVG Export Plug-In . SVG Version: 6.00 Build 0)  -->
<svg version="1.1" id="Layer_1" xmlns="http://www.w3.org/2000/svg" xmlns:xlink="http://www.w3.org/1999/xlink" x="0px" y="0px"
	 viewBox="0 0 71 70" style="enable-background:new 0 0 71 70;" xml:space="preserve">
<style type="text/css">
	.st0{fill:none;stroke:#49B3F7;stroke-width:2;stroke-linecap:square;stroke-miterlimit:10;}
	.st1{fill:#FFFFFF;stroke:#49B3F7;stroke-width:2;stroke-linecap:square;stroke-miterlimit:10;}
</style>
<g id="_x32_0_1_">
	<rect x="3.1" y="1.5" class="st0" width="39.6" height="67"/>
	<line class="st0" x1="3.1" y1="55.8" x2="35" y2="55.8"/>
	<line class="st0" x1="22" y1="62.4" x2="23.7" y2="62.4"/>
	<line class="st0" x1="19.3" y1="8.4" x2="26.5" y2="8.4"/>
	<path class="st1" d="M48.2,53.2h5.2v-3.6c1.5-0.4,2.9-0.9,4.1-1.7l2.5,2.5l5.1-5.1l-2.5-2.5c0.8-1.3,1.3-2.6,1.7-4.1h3.6v-7.3h-3.6
		c-0.4-1.5-0.9-2.9-1.7-4.1l2.5-2.5L60,19.6l-2.5,2.5c-1.3-0.8-2.6-1.3-4.1-1.7v-3.6h-5.2"/>
	<path class="st1" d="M48.2,27c0.5-0.1,1-0.1,1.5-0.1c4.5,0,8.1,3.6,8.1,8.1s-3.6,8.1-8.1,8.1c-0.5,0-1-0.1-1.5-0.1"/>
	<rect x="10.7" y="20.5" class="st0" width="24.3" height="8.8"/>
	<line class="st0" x1="10.7" y1="36.5" x2="35" y2="36.5"/>
	<line class="st0" x1="14.2" y1="43.8" x2="31.5" y2="43.8"/>
</g>
</svg>
