<?xml version="1.0" encoding="utf-8"?>
<!-- Generator: Adobe Illustrator 27.6.1, SVG Export Plug-In . SVG Version: 6.00 Build 0)  -->
<svg version="1.1" id="Layer_1" xmlns="http://www.w3.org/2000/svg" xmlns:xlink="http://www.w3.org/1999/xlink" x="0px" y="0px"
	 viewBox="0 0 71 70" style="enable-background:new 0 0 71 70;" xml:space="preserve">
<style type="text/css">
	.st0{fill:#FFFFFF;stroke:#49B3F7;stroke-width:2;stroke-linecap:square;stroke-miterlimit:10;}
	.st1{fill:none;stroke:#49B3F7;stroke-width:2;stroke-miterlimit:10;}
</style>
<g id="_x31_7">
	<path class="st0" d="M21.4,51.2v4h2.8c0.3,1.1,0.7,2.2,1.3,3.2l-2,2l4,4l2-2c1,0.6,2.1,1,3.2,1.3v2.8h5.7v-2.8
		c1.1-0.3,2.2-0.7,3.2-1.3l2,2l4-4l-2-2c0.6-1,1-2.1,1.3-3.2h2.8v-4"/>
	<path class="st0" d="M41.7,51.2c0.1,0.4,0.1,0.8,0.1,1.2c0,3.5-2.8,6.3-6.3,6.3s-6.3-2.8-6.3-6.3c0-0.4,0-0.8,0.1-1.2"/>
	<rect x="1.1" y="3.5" class="st1" width="68.8" height="43"/>
	<polygon class="st1" points="31.9,18.1 31.9,26.4 38.6,22.2 	"/>
	<line class="st1" x1="24.4" y1="39.2" x2="63.5" y2="39.2"/>
	<line class="st1" x1="16.1" y1="39.2" x2="20.2" y2="39.2"/>
	<line class="st1" x1="21.2" y1="42.2" x2="21.2" y2="36.3"/>
	<line class="st1" x1="11.5" y1="42.2" x2="11.5" y2="36.3"/>
	<line class="st1" x1="7.3" y1="42.2" x2="7.3" y2="36.3"/>
	<path class="st1" d="M42.5,16.9c1,1.5,1.5,3.4,1.5,5.3c0,5.6-4.5,10.1-10.1,10.1s-10.1-4.5-10.1-10.1s4.6-10,10.2-10
		c1.7,0,3.3,0.4,4.6,1.1"/>
</g>
</svg>
