<?xml version="1.0" encoding="utf-8"?>
<!-- Generator: Adobe Illustrator 27.6.1, SVG Export Plug-In . SVG Version: 6.00 Build 0)  -->
<svg version="1.1" id="Layer_1" xmlns="http://www.w3.org/2000/svg" xmlns:xlink="http://www.w3.org/1999/xlink" x="0px" y="0px"
	 viewBox="0 0 71 70" style="enable-background:new 0 0 71 70;" xml:space="preserve">
<style type="text/css">
	.st0{fill:none;stroke:#49B3F7;stroke-width:2;stroke-miterlimit:10;}
</style>
<g>
	<path class="st0" d="M69.8,12.9c-0.3,1.8-0.7,3.5-1.6,5.2c-2.6,4.8-6.6,7.7-12.1,8.3c-1.3,0.1-2.1,0.6-2.8,1.6
		c-2.8,3.7-6.4,6.4-10.8,7.9c-0.5,0.2-0.7,0.5-0.7,1c0,3.7,0,7.3,0,11c0,0.9,0,0.9-0.9,0.9c-3.6,0-7.1,0-10.7,0c-0.9,0-1,0-1-1
		c0-3.7,0-7.3,0-11c0-0.5-0.1-0.8-0.6-0.9c-4.7-1.6-8.5-4.6-11.4-8.6c-0.4-0.5-0.8-0.8-1.4-0.8c-5-0.3-9-2.5-11.9-6.6
		c-2.1-3-3.2-6.4-2.6-10.1c0.6-4.2,4.1-7,8.3-7.1c2.1,0,4.2,0,6.3,0c15.1,0,30.1,0,45.2,0c3.6,0,6.3,1.6,8,4.9
		c0.3,0.7,0.5,1.4,0.7,2.1C69.8,10.8,69.8,11.8,69.8,12.9z M38.8,18.5c0-0.9,0-1.7,0-2.6c0-2.2,0-4.5,0-6.7c0-0.8-0.4-1.4-0.9-1.5
		c-1.5-0.5-2.8,0-3.6,1.3c-0.1,0.2-0.2,0.3-0.3,0.5c-1.2,1.6-2.8,2.7-4.5,3.6c-0.7,0.4-1,0.9-1,1.7c0,0.2,0,0.5,0,0.7
		c0,1.4,1,2,2.2,1.4c0.9-0.4,1.7-1,2.4-1.5c0.3-0.2,0.5-0.7,0.9-0.6c0.4,0.2,0.2,0.7,0.2,1c0,3.9,0,7.9,0,11.8
		c0,1.2,0.5,1.7,1.7,1.7c0.4,0,0.8,0,1.1,0c1.3,0,1.8-0.5,1.8-1.8C38.8,24.5,38.8,21.5,38.8,18.5z M57.4,21.2c0.1,0,0.2,0,0.2,0
		c0.1,0,0.2,0,0.3-0.1c3.4-1.2,5.7-3.5,6.7-7c0.4-1.1,0.5-2.3,0.4-3.5c-0.2-1.8-1.7-3-3.8-3.1c-1.1,0-1.1,0-1.2,1.1
		c0,2.4-0.3,4.7-0.9,7.1C58.8,17.6,58.2,19.4,57.4,21.2z M13.7,21.3c-0.2-0.4-0.2-0.6-0.3-0.9C11.9,16.7,11.1,13,11,9.1
		c-0.1-1.6,0-1.6-1.6-1.5C7.4,7.7,6,9.2,6,11.1c0,2.6,0.9,4.9,2.6,6.9C9.9,19.6,11.5,20.7,13.7,21.3z"/>
	<path class="st0" d="M35.5,67.3c-5.2,0-10.5,0-15.7,0c-1.9,0-2.6-0.7-2.6-2.6c0-2,0-4,0-6c0-1.6,0.8-2.4,2.4-2.4c0.9,0,1.8,0,2.7,0
		c0.6,0,0.7-0.2,0.7-0.7c0-0.8,0-1.5,0-2.3c0-1.6,0.8-2.4,2.4-2.4c6.8,0,13.5,0,20.3,0c1.5,0,2.3,0.8,2.3,2.3c0,0.8,0,1.6,0,2.3
		c0,0.6,0.2,0.7,0.7,0.7c0.9,0,1.8,0,2.7,0c1.6,0,2.4,0.8,2.4,2.4c0,1.9,0,3.9,0,5.8c0,2.1-0.7,2.7-2.8,2.7
		C45.9,67.3,40.7,67.3,35.5,67.3z"/>
</g>
</svg>
