<?xml version="1.0" encoding="utf-8"?>
<!-- Generator: Adobe Illustrator 27.6.1, SVG Export Plug-In . SVG Version: 6.00 Build 0)  -->
<svg version="1.1" id="Layer_1" xmlns="http://www.w3.org/2000/svg" xmlns:xlink="http://www.w3.org/1999/xlink" x="0px" y="0px"
	 viewBox="0 0 71 70" style="enable-background:new 0 0 71 70;" xml:space="preserve">
<style type="text/css">
	.st0{fill:none;stroke:#49B3F7;stroke-width:2;stroke-miterlimit:10;}
	.st1{fill:none;stroke:#49B3F7;stroke-width:2;stroke-linecap:square;stroke-miterlimit:10;}
</style>
<g id="_x31_2">
	<g>
		<rect x="1.4" y="6.8" class="st0" width="68.3" height="56.5"/>
		<line class="st0" x1="1.4" y1="16.1" x2="64.8" y2="16.1"/>
		<line class="st0" x1="5.7" y1="11.5" x2="8.1" y2="11.5"/>
		<line class="st0" x1="10.6" y1="11.5" x2="13" y2="11.5"/>
		<line class="st0" x1="15.5" y1="11.5" x2="18" y2="11.5"/>
	</g>
	<g>
		<polyline class="st1" points="35,33.9 29.7,40.2 35,46.5 		"/>
		<polyline class="st1" points="52.3,46.5 57.6,40.2 52.3,33.9 		"/>
		<line class="st1" x1="40.9" y1="48.2" x2="46.4" y2="32.2"/>
	</g>
	<rect x="7.9" y="22.7" class="st1" width="12" height="33.9"/>
	<line class="st1" x1="12.9" y1="28.4" x2="14.8" y2="28.4"/>
	<line class="st1" x1="12.9" y1="34" x2="14.8" y2="34"/>
	<line class="st1" x1="12.9" y1="39.7" x2="14.8" y2="39.7"/>
	<line class="st1" x1="12.9" y1="45.3" x2="14.8" y2="45.3"/>
	<line class="st1" x1="12.9" y1="51" x2="14.8" y2="51"/>
</g>
</svg>
