<?xml version="1.0" encoding="utf-8"?>
<!-- Generator: Adobe Illustrator 27.6.1, SVG Export Plug-In . SVG Version: 6.00 Build 0)  -->
<svg version="1.1" id="Layer_1" xmlns="http://www.w3.org/2000/svg" xmlns:xlink="http://www.w3.org/1999/xlink" x="0px" y="0px"
	 viewBox="0 0 71 70" style="enable-background:new 0 0 71 70;" xml:space="preserve">
<style type="text/css">
	.st0{fill:none;stroke:#49B3F7;stroke-width:2;stroke-miterlimit:10;}
	.st1{fill:none;stroke:#49B3F7;stroke-width:2;stroke-linecap:square;stroke-miterlimit:10;}
</style>
<g id="_x31_5">
	<g>
		<rect x="1.5" y="13.5" class="st0" width="52.1" height="43.1"/>
		<line class="st0" x1="1.5" y1="20.6" x2="49.9" y2="20.6"/>
		<line class="st0" x1="4.8" y1="17.1" x2="6.6" y2="17.1"/>
		<line class="st0" x1="8.5" y1="17.1" x2="10.4" y2="17.1"/>
		<line class="st0" x1="12.3" y1="17.1" x2="14.1" y2="17.1"/>
	</g>
	<rect x="7.7" y="28.9" class="st0" width="15.1" height="10.5"/>
	<line class="st0" x1="28.9" y1="28.9" x2="39.8" y2="28.9"/>
	<line class="st0" x1="28.9" y1="44.6" x2="48.2" y2="44.6"/>
	<line class="st0" x1="28.9" y1="34.1" x2="35" y2="34.1"/>
	<line class="st0" x1="28.9" y1="39.3" x2="35" y2="39.3"/>
	<line class="st0" x1="6.8" y1="44.6" x2="48.2" y2="44.6"/>
	<line class="st0" x1="29.3" y1="39.3" x2="48.2" y2="39.3"/>
	<line class="st0" x1="6.8" y1="49.8" x2="48.2" y2="49.8"/>
	<line class="st0" x1="38.7" y1="34.1" x2="48.2" y2="34.1"/>
	<path class="st1" d="M57.7,46.9H60v-2.3c1-0.2,1.9-0.6,2.7-1.1l1.6,1.6l3.3-3.3L66,40.2c0.5-0.8,0.9-1.7,1.1-2.7h2.3v-4.7h-2.3
		c-0.2-1-0.6-1.9-1.1-2.7l1.6-1.6L64.4,25l-1.6,1.6c-0.8-0.5-1.7-0.9-2.7-1.1v-2.3h-2.4"/>
	<path class="st1" d="M57.7,29.7c2.9,0,5.3,2.4,5.3,5.3c0,2.9-2.4,5.3-5.3,5.3"/>
</g>
</svg>
